<svg width="50" height="50" fill="none" xmlns="http://www.w3.org/2000/svg"><path d="M45.305 17.65V3.613a.977.977 0 00-.976-.976h-9.922a.976.976 0 100 1.953h8.945v12.305h-3.611v-2.873a.977.977 0 10-1.953 0v2.873h-3.466V11.51a.976.976 0 10-1.954 0v5.384h-3.465v-2.873a.977.977 0 00-1.953 0v2.873h-3.466V11.51a.976.976 0 10-1.954 0v5.384h-3.466v-2.873a.977.977 0 10-1.953 0v2.873h-3.466V11.51a.976.976 0 10-1.953 0v5.384H8.105c-.298 0-.591-.023-.878-.064v-2.809a.977.977 0 10-1.954 0V16.2a6.157 6.157 0 01-3.32-5.459A6.16 6.16 0 018.105 4.59H25.88a.977.977 0 100-1.953H8.105C3.636 2.637 0 6.273 0 10.742V25c0 3.251 1.925 6.06 4.695 7.35v14.037c0 .54.437.976.976.976h36.224c4.469 0 8.105-3.636 8.105-8.105V25c0-3.251-1.925-6.06-4.695-7.35zM1.953 25v-8.99a8.088 8.088 0 006.152 2.838h33.79A6.16 6.16 0 0148.046 25a6.16 6.16 0 01-6.152 6.152H8.105A6.16 6.16 0 011.953 25zm46.094 14.258a6.16 6.16 0 01-3.466 5.533v-2.233a.976.976 0 10-1.953 0v2.807c-.24.029-.485.045-.733.045h-2.733v-5.362a.977.977 0 00-1.953 0v5.362h-3.466v-2.852a.977.977 0 10-1.953 0v2.852h-3.466v-5.362a.976.976 0 10-1.953 0v5.362h-3.466v-2.852a.977.977 0 00-1.953 0v2.852h-3.466v-5.362a.977.977 0 10-1.953 0v5.362h-3.466v-2.852a.977.977 0 10-1.954 0v2.852H6.649V33.106h35.247a8.088 8.088 0 006.152-2.838v8.99z" fill="#CBA55C"/><path d="M30.696 4.59a.98.98 0 00.69-1.668.982.982 0 00-1.38 0 .985.985 0 00-.287.692.98.98 0 00.287.69.983.983 0 00.69.286zM16.51 35.622a.982.982 0 00-.692.286.983.983 0 00-.285.691c0 .257.104.509.285.69a.987.987 0 00.691.286.985.985 0 00.691-.286.983.983 0 00.285-.69.983.983 0 00-.285-.69.982.982 0 00-.69-.287z" fill="#CBA55C"/></svg>