<svg width="50" height="50" fill="none" xmlns="http://www.w3.org/2000/svg"><g clip-path="url(#clip0)" fill="#CBA55C"><path d="M23.072 33.913a.977.977 0 000-1.382.977.977 0 100 1.382zM18.44 10.74c0 5.92 4.826 10.739 10.76 10.739 5.933 0 10.76-4.818 10.76-10.74C39.96 4.818 35.131 0 29.2 0c-5.934 0-10.76 4.818-10.76 10.74zm19.563 0c0 4.844-3.95 8.786-8.804 8.786s-8.804-3.942-8.804-8.787c0-4.845 3.95-8.786 8.804-8.786 4.855 0 8.804 3.941 8.804 8.786z"/><path d="M11.316 49.711a.98.98 0 001.38.008l4.743-4.663a2.946 2.946 0 00.697-3.03l1.02-.981a2.92 2.92 0 012.037-.822h13.004a8.767 8.767 0 006.14-2.49c.069-.066-.516.622 8.872-10.577a3.905 3.905 0 00-.465-5.504 3.928 3.928 0 00-5.489.435l-5.772 5.922a3.934 3.934 0 00-3.041-1.454H23.533a12.642 12.642 0 00-4.898-.976c-4.71 0-8.823 2.171-11.03 6.242a2.926 2.926 0 00-2.617.81L.334 37.289a.975.975 0 00-.001 1.377L11.316 49.71zm7.319-22.18c1.498 0 2.946.301 4.306.895a.977.977 0 00.392.082h11.109a1.96 1.96 0 011.956 1.952 1.957 1.957 0 01-1.956 1.953H26.46a.977.977 0 100 1.953h7.982a3.913 3.913 0 003.878-4.416c5.584-5.729 6.371-6.534 6.405-6.573a1.966 1.966 0 012.758-.233c.824.695.928 1.93.23 2.756l-8.775 10.468a6.818 6.818 0 01-4.741 1.903H21.193c-1.274 0-2.48.486-3.396 1.369l-.831.8-7.664-7.648c1.792-3.353 5.152-5.26 9.333-5.26zm-12.263 6.48a.977.977 0 011.212-.138c.169.103-.317-.339 8.472 8.421a.977.977 0 01.005 1.376l-4.043 3.976-9.611-9.666 3.965-3.97zM28.026 4.882v1.144a2.934 2.934 0 00-1.957 2.76 2.935 2.935 0 002.935 2.93c.54 0 .978.438.978.976a.978.978 0 01-.978.976c-.418 0-.87-.262-1.27-.738a.98.98 0 00-1.379-.12.975.975 0 00-.119 1.376c.523.62 1.138 1.053 1.79 1.271v1.14a.977.977 0 001.956 0v-1.144a2.935 2.935 0 001.956-2.761 2.935 2.935 0 00-2.934-2.929.978.978 0 01-.978-.976.98.98 0 01.978-.977c.346 0 .712.177 1.058.51a.98.98 0 001.383-.022.975.975 0 00-.023-1.38c-.496-.48-.993-.751-1.44-.9V4.883a.977.977 0 00-1.956 0z"/></g><defs><clipPath id="clip0"><path fill="#fff" d="M0 0h50v50H0z"/></clipPath></defs></svg>