<svg width="50" height="50" fill="none" xmlns="http://www.w3.org/2000/svg"><path d="M33.394 32.066c-1.185 0-2.149-.834-2.149-1.86 0-1.025.964-1.859 2.149-1.859 1.184 0 2.148.834 2.148 1.86a.977.977 0 001.953 0c0-1.79-1.333-3.295-3.125-3.703v-.508a.977.977 0 00-1.953 0v.508c-1.791.408-3.125 1.913-3.125 3.703 0 2.102 1.84 3.812 4.102 3.812 1.184 0 2.148.834 2.148 1.86 0 1.025-.964 1.86-2.148 1.86-1.185 0-2.149-.835-2.149-1.86a.977.977 0 00-1.953 0c0 1.79 1.334 3.294 3.125 3.703v.421a.977.977 0 001.953 0v-.422c1.792-.408 3.125-1.913 3.125-3.702 0-2.102-1.84-3.813-4.101-3.813zm10.696-5.809a12.724 12.724 0 00-5.198-4.6.976.976 0 10-.846 1.76c3.702 1.78 6.095 5.583 6.095 9.688 0 1.757-.434 3.5-1.253 5.039a.976.976 0 101.725.917 12.72 12.72 0 001.48-5.956c0-2.437-.692-4.805-2.003-6.848zm-9.161-5.847h-.066a.977.977 0 000 1.953h.062a.977.977 0 00.004-1.953zM28.75 42.793c-3.701-1.78-6.093-5.582-6.093-9.688 0-1.756.433-3.498 1.252-5.038a.976.976 0 10-1.725-.917 12.722 12.722 0 00-1.48 5.956c0 2.437.692 4.805 2.003 6.848a12.725 12.725 0 005.197 4.6.977.977 0 10.846-1.76zm3.184 1.055h-.057a.976.976 0 10-.009 1.953h.066a.977.977 0 000-1.953z" fill="#CBA55C"/><path d="M37.833 17.106a4.479 4.479 0 00-.434-.797h2.542a4.497 4.497 0 004.492-4.493 4.497 4.497 0 00-4.492-4.492h-7.82c.497-.723.79-1.597.79-2.539A4.497 4.497 0 0028.417.293H4.492A4.497 4.497 0 000 4.785a4.497 4.497 0 004.492 4.492h7.82a4.466 4.466 0 00-.789 2.54c0 .941.292 1.816.79 2.538H9.765a4.497 4.497 0 00-4.493 4.493c0 1.422.666 2.692 1.701 3.515a4.485 4.485 0 000 7.032 4.485 4.485 0 000 7.03 4.485 4.485 0 00-1.7 3.516 4.497 4.497 0 004.492 4.492h11.508c3.032 3.243 7.345 5.274 12.124 5.274C42.553 49.707 50 42.26 50 33.105c0-7.618-5.16-14.054-12.167-15.999zm2.108-7.829c1.4 0 2.54 1.14 2.54 2.54 0 1.4-1.14 2.538-2.54 2.538H16.016c-1.4 0-2.54-1.139-2.54-2.539 0-1.4 1.14-2.539 2.54-2.539H39.94zM4.492 7.324a2.542 2.542 0 01-2.539-2.539c0-1.4 1.14-2.539 2.54-2.539h23.925c1.4 0 2.539 1.14 2.539 2.54 0 1.4-1.139 2.538-2.54 2.538H4.493zm5.274 8.985H33.69c.394 0 .77.091 1.108.255a16.55 16.55 0 00-13.149 4.823H9.767c-1.4 0-2.54-1.14-2.54-2.54 0-1.4 1.14-2.538 2.54-2.538zm0 7.03h10.216a16.555 16.555 0 00-2.51 5.079H9.766c-1.4 0-2.54-1.139-2.54-2.54 0-1.4 1.14-2.538 2.54-2.538zm0 7.032h7.257a16.647 16.647 0 00-.06 5.078H9.766c-1.4 0-2.54-1.139-2.54-2.539 0-1.4 1.14-2.539 2.54-2.539zm0 12.11c-1.4 0-2.54-1.14-2.54-2.54 0-1.4 1.14-2.539 2.54-2.539h7.596a16.536 16.536 0 002.343 5.078h-9.94zm23.632 5.273c-8.077 0-14.648-6.571-14.648-14.648 0-8.078 6.571-14.649 14.648-14.649 8.078 0 14.649 6.571 14.649 14.648 0 8.078-6.571 14.649-14.648 14.649z" fill="#CBA55C"/></svg>