<svg width="36" height="36" fill="none" xmlns="http://www.w3.org/2000/svg"><path d="M18 0C8.06 0 0 8.06 0 18c0 9.942 8.06 18 18 18 9.942 0 18-8.057 18-18 0-9.94-8.058-18-18-18zm0 32.625C9.923 32.625 3.375 26.078 3.375 18 3.375 9.923 9.923 3.375 18 3.375c8.078 0 14.625 6.548 14.625 14.625 0 8.078-6.547 14.625-14.625 14.625zm.001-24.73c-1.29 0-2.265.672-2.265 1.759v9.967c0 1.088.976 1.759 2.265 1.759 1.258 0 2.265-.7 2.265-1.759V9.654c0-1.061-1.007-1.76-2.265-1.76zm0 15.73a2.25 2.25 0 00-2.247 2.248 2.25 2.25 0 002.247 2.245 2.248 2.248 0 002.246-2.245A2.249 2.249 0 0018 23.625z" fill="#fff"/></svg>