<svg width="64" height="64" viewBox="0 0 64 64" fill="none" xmlns="http://www.w3.org/2000/svg">
<g clip-path="url(#clip0)">
<path d="M63.2668 30.2304C63.266 30.2296 63.2654 30.2287 63.2645 30.228L50.2015 17.228C49.2229 16.2541 47.64 16.2577 46.6659 17.2365C45.6919 18.2151 45.6956 19.798 46.6743 20.772L55.4448 29.5H2.5C1.11925 29.5 0 30.6192 0 32C0 33.3807 1.11925 34.5 2.5 34.5H55.4446L46.6744 43.228C45.6957 44.202 45.692 45.7849 46.666 46.7635C47.6401 47.7424 49.2231 47.7457 50.2016 46.772L63.2646 33.772C63.2654 33.7712 63.266 33.7704 63.2669 33.7696C64.246 32.7924 64.2429 31.2044 63.2668 30.2304Z" fill="white"/>
</g>
<defs>
<clipPath id="clip0">
<rect width="64" height="64" fill="white"/>
</clipPath>
</defs>
</svg>
