<svg width="50" height="50" viewBox="0 0 50 50" fill="none" xmlns="http://www.w3.org/2000/svg">
<path d="M44.6651 9.56413H46.21C46.7489 9.56413 47.1859 9.12712 47.1859 8.58821C47.1859 8.04931 46.7489 7.61229 46.21 7.61229H42.5015C41.9626 7.61229 41.5256 8.04931 41.5256 8.58821V12.2967C41.5256 12.8356 41.9626 13.2726 42.5015 13.2726C43.0404 13.2726 43.4774 12.8356 43.4774 12.2967V11.2229C46.4386 15.1872 48.0482 19.9972 48.0482 25C48.0482 37.7088 37.7088 48.0482 25 48.0482C12.2912 48.0482 1.95184 37.7088 1.95184 25C1.95184 12.2912 12.2912 1.95184 25 1.95184C25.9399 1.95184 26.8859 2.00894 27.8118 2.12146C28.3461 2.18607 28.8334 1.80555 28.8984 1.27046C28.9635 0.735455 28.5825 0.24886 28.0474 0.183864C27.0436 0.0618735 26.0184 0 25 0C18.3223 0 12.0441 2.60044 7.32234 7.32234C2.60044 12.0441 0 18.3223 0 25C0 31.6777 2.60044 37.9559 7.32234 42.6777C12.0441 47.3996 18.3223 50 25 50C31.6777 50 37.9559 47.3996 42.6777 42.6777C47.3996 37.9559 50 31.6777 50 25C50 19.3649 48.1174 13.9552 44.6651 9.56413Z" fill="#CBA55C"/>
<path d="M10.5862 14.7377C10.1307 14.4494 9.5279 14.5851 9.23951 15.0402C7.01158 18.559 6.02531 22.7908 6.46243 26.9562C6.90599 31.1833 8.80855 35.1695 11.8197 38.1807C15.4535 41.8146 20.2268 43.6315 25.0003 43.6315C29.7737 43.6315 34.5469 41.8147 38.1809 38.1807C45.4487 30.9129 45.4487 19.0873 38.1809 11.8196C35.1743 8.81318 31.1946 6.9113 26.9746 6.46433C22.8169 6.0237 18.5897 7.00225 15.0724 9.21926C14.6164 9.50667 14.4798 10.1093 14.7671 10.5652C15.0545 11.0213 15.6572 11.1578 16.1131 10.8705C22.7433 6.69162 31.2502 7.64929 36.8006 13.1997C43.3074 19.7065 43.3074 30.2937 36.8006 36.8005C30.294 43.3073 19.7066 43.3073 13.1999 36.8005C7.72615 31.3267 6.75413 22.6144 10.8887 16.0845C11.1769 15.629 11.0416 15.0261 10.5862 14.7377Z" fill="#CBA55C"/>
<path d="M37.6871 25.9917H38.8906C39.4295 25.9917 39.8665 25.5547 39.8665 25.0158C39.8665 24.4769 39.4295 24.0399 38.8906 24.0399H37.6871C37.1482 24.0399 36.7112 24.4769 36.7112 25.0158C36.7112 25.5547 37.1481 25.9917 37.6871 25.9917Z" fill="#CBA55C"/>
<path d="M10.1333 24.9842C10.1333 25.5231 10.5703 25.9601 11.1092 25.9601H12.3127C12.8516 25.9601 13.2886 25.5231 13.2886 24.9842C13.2886 24.4453 12.8516 24.0083 12.3127 24.0083H11.1092C10.5703 24.0083 10.1333 24.4452 10.1333 24.9842Z" fill="#CBA55C"/>
<path d="M25.9916 12.313V11.1095C25.9916 10.5706 25.5546 10.1335 25.0157 10.1335C24.4768 10.1335 24.0398 10.5706 24.0398 11.1095V12.313C24.0398 12.8519 24.4768 13.2889 25.0157 13.2889C25.5546 13.2889 25.9916 12.8519 25.9916 12.313Z" fill="#CBA55C"/>
<path d="M24.0083 37.6871V38.8906C24.0083 39.4295 24.4453 39.8665 24.9842 39.8665C25.5231 39.8665 25.9601 39.4295 25.9601 38.8906V37.6871C25.9601 37.1482 25.5231 36.7112 24.9842 36.7112C24.4453 36.7112 24.0083 37.1481 24.0083 37.6871Z" fill="#CBA55C"/>
<path d="M20.1085 18.728C19.7273 18.347 19.1095 18.347 18.7282 18.728C18.3471 19.1091 18.3471 19.7271 18.7282 20.1083L22.0357 23.4158C21.7823 23.8881 21.6381 24.4275 21.6381 25C21.6381 26.8539 23.1463 28.3621 25.0002 28.3621C26.854 28.3621 28.3622 26.8539 28.3622 25C28.3622 24.4275 28.218 23.8881 27.9646 23.4158L34.6383 16.7421C35.0194 16.361 35.0194 15.7431 34.6383 15.3619C34.2571 14.9809 33.6393 14.9809 33.258 15.3619L26.5844 22.0355C26.112 21.7821 25.5726 21.6379 25.0002 21.6379C24.4277 21.6379 23.8883 21.7822 23.4159 22.0355L20.1085 18.728ZM26.4104 25C26.4104 25.7776 25.7778 26.4102 25.0002 26.4102C24.2225 26.4102 23.59 25.7776 23.59 25C23.59 24.2224 24.2225 23.5898 25.0002 23.5898C25.7778 23.5898 26.4104 24.2224 26.4104 25Z" fill="#CBA55C"/>
<path d="M13.1991 13.1991C13.3816 13.0176 13.4859 12.7658 13.4859 12.5092C13.4859 12.2525 13.3816 12.0017 13.1991 11.8192C13.0176 11.6378 12.7667 11.5332 12.5091 11.5332C12.2525 11.5332 12.0007 11.6377 11.8191 11.8192C11.6377 12.0007 11.5332 12.2525 11.5332 12.5092C11.5332 12.7668 11.6376 13.0176 11.8191 13.1991C12.0007 13.3805 12.2525 13.4851 12.5091 13.4851C12.7667 13.4851 13.0176 13.3805 13.1991 13.1991Z" fill="#CBA55C"/>
<path d="M31.7603 2.91581C32.0181 2.91581 32.2699 2.81226 32.4513 2.62987C32.6328 2.44834 32.7373 2.19743 32.7373 1.93989C32.7373 1.68322 32.6329 1.43143 32.4513 1.24991C32.2699 1.06849 32.0181 0.963966 31.7603 0.963966C31.5037 0.963966 31.2519 1.06839 31.0705 1.24991C30.8889 1.43143 30.7844 1.68322 30.7844 1.93989C30.7844 2.19753 30.8888 2.44834 31.0705 2.62987C31.2519 2.81226 31.5037 2.91581 31.7603 2.91581Z" fill="#CBA55C"/>
</svg>
