<svg width="50" height="50" viewBox="0 0 50 50" fill="none" xmlns="http://www.w3.org/2000/svg">
<path d="M45.3053 17.6498V3.61328C45.3053 3.07388 44.8681 2.63672 44.3287 2.63672H34.4074C33.868 2.63672 33.4309 3.07388 33.4309 3.61328C33.4309 4.15268 33.868 4.58984 34.4074 4.58984H43.3521V16.8945H39.7408V14.0221C39.7408 13.4827 39.3036 13.0455 38.7642 13.0455C38.2248 13.0455 37.7876 13.4827 37.7876 14.0221V16.8945H34.3216V11.5112C34.3216 10.9718 33.8844 10.5347 33.345 10.5347C32.8056 10.5347 32.3685 10.9718 32.3685 11.5112V16.8945H28.9028V14.0221C28.9028 13.4827 28.4653 13.0455 27.9263 13.0455C27.3869 13.0455 26.9497 13.4827 26.9497 14.0221V16.8945H23.4837V11.5112C23.4837 10.9718 23.0465 10.5347 22.5071 10.5347C21.9677 10.5347 21.5305 10.9718 21.5305 11.5112V16.8945H18.0645V14.0221C18.0645 13.4827 17.6273 13.0455 17.0879 13.0455C16.5485 13.0455 16.1114 13.4827 16.1114 14.0221V16.8945H12.6453V11.5112C12.6453 10.9718 12.2082 10.5347 11.6688 10.5347C11.1298 10.5347 10.6922 10.9718 10.6922 11.5112V16.8945H8.10547C7.80716 16.8945 7.51381 16.872 7.22656 16.8308V14.0221C7.22656 13.4827 6.7894 13.0455 6.25 13.0455C5.7106 13.0455 5.27344 13.4827 5.27344 14.0221V16.201C3.30276 15.1745 1.95312 13.1138 1.95312 10.7422C1.95312 7.34978 4.71306 4.58984 8.10547 4.58984H25.8789C26.4183 4.58984 26.8555 4.15268 26.8555 3.61328C26.8555 3.07388 26.4183 2.63672 25.8789 2.63672H8.10547C3.63617 2.63672 0 6.27289 0 10.7422V25C0 28.2513 1.92528 31.06 4.69475 32.3502V46.3867C4.69475 46.9261 5.13191 47.3633 5.67131 47.3633H41.8945C46.3638 47.3633 50 43.7271 50 39.2578V25C50 21.7487 48.0747 18.94 45.3053 17.6498ZM1.95312 25V16.0103C3.44086 17.7452 5.64613 18.8477 8.10547 18.8477H41.8945C45.2869 18.8477 48.0469 21.6076 48.0469 25C48.0469 28.3924 45.2869 31.1523 41.8945 31.1523H8.10547C4.71306 31.1523 1.95312 28.3924 1.95312 25ZM48.0469 39.2578C48.0469 41.6874 46.6309 43.7923 44.5808 44.7914V42.5583C44.5808 42.0189 44.1437 41.5817 43.6043 41.5817C43.0649 41.5817 42.6277 42.0189 42.6277 42.5583V45.3648C42.3874 45.3938 42.1429 45.4102 41.8945 45.4102H39.1621V40.0475C39.1621 39.5081 38.7245 39.0709 38.1855 39.0709C37.6461 39.0709 37.2089 39.5081 37.2089 40.0475V45.4102H33.7429V42.5583C33.7429 42.0189 33.3057 41.5817 32.7663 41.5817C32.2269 41.5817 31.7898 42.0189 31.7898 42.5583V45.4102H28.3237V40.0475C28.3237 39.5081 27.8866 39.0709 27.3472 39.0709C26.8078 39.0709 26.3706 39.5081 26.3706 40.0475V45.4102H22.905V42.5583C22.905 42.0189 22.4674 41.5817 21.9284 41.5817C21.389 41.5817 20.9518 42.0189 20.9518 42.5583V45.4102H17.4858V40.0475C17.4858 39.5081 17.0486 39.0709 16.5092 39.0709C15.9698 39.0709 15.5327 39.5081 15.5327 40.0475V45.4102H12.0667V42.5583C12.0667 42.0189 11.6295 41.5817 11.0901 41.5817C10.5507 41.5817 10.1135 42.0189 10.1135 42.5583V45.4102H6.64787V33.1055H41.8945C44.3539 33.1055 46.5591 32.003 48.0469 30.2681V39.2578Z" fill="#CBA55C"/>
<path d="M30.696 4.59023C30.9532 4.59023 31.2049 4.4857 31.3865 4.30412C31.5692 4.1214 31.6726 3.87077 31.6726 3.61366C31.6726 3.35579 31.5692 3.10516 31.3865 2.92244C31.2049 2.74086 30.9539 2.6371 30.696 2.6371C30.4393 2.6371 30.1875 2.74086 30.006 2.92244C29.824 3.10516 29.7195 3.35579 29.7195 3.61366C29.7195 3.87077 29.824 4.12254 30.006 4.30412C30.1875 4.4857 30.4393 4.59023 30.696 4.59023Z" fill="#CBA55C"/>
<path d="M16.5095 35.6224C16.252 35.6224 15.9999 35.7262 15.8183 35.9085C15.6367 36.0905 15.533 36.3415 15.533 36.599C15.533 36.8561 15.6367 37.1078 15.8183 37.2894C16.001 37.471 16.252 37.5755 16.5095 37.5755C16.7666 37.5755 17.0176 37.471 17.2 37.2894C17.3816 37.1078 17.4853 36.8561 17.4853 36.599C17.4853 36.3415 17.3816 36.0905 17.2 35.9085C17.0176 35.7262 16.7666 35.6224 16.5095 35.6224Z" fill="#CBA55C"/>
</svg>
