<svg width="50" height="50" viewBox="0 0 50 50" fill="none" xmlns="http://www.w3.org/2000/svg">
<path d="M49.7127 0.286035C49.5295 0.102929 49.281 0 49.022 0L24.9991 0.00126953C24.4599 0.00126953 24.0226 0.438573 24.0226 0.97783V3.7705L14.7659 6.25087C14.2449 6.39052 13.9357 6.92596 14.0754 7.44686L18.8729 25.3513L14.7227 29.5016C14.1944 28.7303 13.3075 28.2231 12.3043 28.2231H2.92959C1.31416 28.2231 0 29.5373 0 31.1527V47.0702C0 48.6856 1.31416 49.9999 2.92959 49.9999H12.3044C13.6768 49.9999 14.8312 49.0511 15.1477 47.7753L16.3088 48.7879C17.2052 49.5695 18.3536 50 19.543 50H49.0222C49.5614 50 49.9987 49.5627 49.9987 49.0234V0.976561C49.9985 0.717577 49.8958 0.46914 49.7127 0.286035ZM13.2808 47.0703C13.2808 47.6087 12.8427 48.0469 12.3042 48.0469H2.92949C2.39102 48.0469 1.95293 47.6088 1.95293 47.0703V31.1528C1.95293 30.6143 2.39102 30.1762 2.92949 30.1762H6.64033V41.4257C6.64033 41.965 7.07763 42.4023 7.61689 42.4023C8.15615 42.4023 8.59345 41.965 8.59345 41.4257V30.1762H12.3043C12.8428 30.1762 13.2809 30.6143 13.2809 31.1528V47.0703H13.2808ZM16.2146 7.88465L24.0226 5.79247V9.41111L23.3682 9.5865C23.1179 9.65359 22.9047 9.81717 22.7752 10.0415C22.6457 10.2658 22.6105 10.5323 22.6776 10.7825C23.0529 12.183 22.2188 13.6276 20.8184 14.0029C20.5679 14.0701 20.3543 14.234 20.2249 14.4588C20.0955 14.6835 20.0606 14.9505 20.1283 15.2008L23.9349 29.2963H21.9749L20.9648 25.3448C20.9327 25.219 20.8765 25.1031 20.8012 25.0023L16.2146 7.88465ZM24.0226 13.8895V22.1298L22.2415 15.5346C22.9855 15.1505 23.5944 14.5757 24.0226 13.8895ZM38.0523 48.0468H19.5428C18.8255 48.0468 18.1328 47.7872 17.5922 47.3158L15.2339 45.2591V31.7526L19.4974 27.4891L20.2706 30.5145C20.3811 30.9468 20.7705 31.2492 21.2167 31.2492L40.4163 31.2503C41.1702 31.2503 41.7835 31.8636 41.7835 32.6175C41.7835 33.3714 41.1702 33.9847 40.4163 33.9847H30.5784C30.0392 33.9847 29.6019 34.422 29.6019 34.9613C29.6019 35.5005 30.0392 35.9378 30.5784 35.9378H43.4729C44.2268 35.9378 44.8401 36.5511 44.8401 37.305C44.8401 38.0589 44.2268 38.6722 43.4729 38.6722H30.5784C30.0392 38.6722 29.6019 39.1095 29.6019 39.6488C29.6019 40.188 30.0392 40.6253 30.5784 40.6253H41.3834C42.1373 40.6253 42.7506 41.2386 42.7506 41.9925C42.7506 42.7464 42.1373 43.3597 41.3834 43.3597H30.5784C30.0392 43.3597 29.6019 43.797 29.6019 44.3362C29.6019 44.8755 30.0392 45.3128 30.5784 45.3128H38.0523C38.8062 45.3128 39.4195 45.9261 39.4195 46.68C39.4194 47.4335 38.8061 48.0468 38.0523 48.0468ZM48.0456 48.0468H48.0455H41.0768C41.2662 47.6295 41.3725 47.1669 41.3725 46.6796C41.3725 46.1923 41.2662 45.7297 41.0768 45.3124H41.3834C43.2142 45.3124 44.7036 43.823 44.7036 41.9922C44.7036 41.4582 44.5762 40.9536 44.3512 40.5062C45.757 40.12 46.7931 38.8315 46.7931 37.3048C46.7931 36.5642 46.5491 35.8795 46.1377 35.3268V22.9499C46.1377 22.4106 45.7004 21.9733 45.1611 21.9733C44.6219 21.9733 44.1846 22.4106 44.1846 22.9499V34.0623C43.9551 34.012 43.7171 33.9847 43.4727 33.9847H43.4407C43.6301 33.5674 43.7364 33.1048 43.7364 32.6175C43.7364 30.7867 42.247 29.2973 40.4162 29.2973H38.8464C40.5133 28.5825 41.684 26.9256 41.684 25C41.684 22.4229 39.5875 20.3263 37.0104 20.3263C34.4335 20.3263 32.3369 22.4229 32.3369 25C32.3369 26.9256 33.5077 28.5825 35.1745 29.2973H29.8363V10.7288C31.5809 10.3486 32.9574 8.97215 33.3375 7.22753H40.6833C41.0634 8.97215 42.4399 10.3486 44.1845 10.7288V13.7649C44.1845 14.3042 44.6218 14.7415 45.161 14.7415C45.7003 14.7415 46.1376 14.3042 46.1376 13.7649V9.85691C46.1376 9.31766 45.7003 8.88035 45.161 8.88035C43.7111 8.88035 42.5317 7.70077 42.5317 6.25096C42.5317 5.71171 42.0944 5.2744 41.5552 5.2744H32.4657C31.9265 5.2744 31.4892 5.71171 31.4892 6.25096C31.4892 7.70086 30.3097 8.88035 28.8599 8.88035C28.3206 8.88035 27.8833 9.31766 27.8833 9.85691V29.2972H25.9759V1.9542L48.0456 1.95312V48.0468ZM37.0106 27.7205C35.5105 27.7205 34.2902 26.5 34.2902 25.0001C34.2902 23.5001 35.5106 22.2795 37.0106 22.2795C38.5106 22.2795 39.731 23.5 39.731 25C39.731 26.4999 38.5107 27.7205 37.0106 27.7205Z" fill="#CBA55C"/>
</svg>
