<svg width="50" height="50" viewBox="0 0 50 50" fill="none" xmlns="http://www.w3.org/2000/svg">
<g clip-path="url(#clip0)">
<path d="M23.0717 33.9127C23.4535 33.5308 23.4535 32.9128 23.0717 32.531C22.6895 32.1503 22.0703 32.1503 21.6877 32.531C21.3062 32.9128 21.3062 33.5308 21.6877 33.9127C22.0703 34.2934 22.6895 34.2934 23.0717 33.9127Z" fill="#CBA55C"/>
<path d="M18.4392 10.7391C18.4392 16.6607 23.2662 21.4787 29.1994 21.4787C35.1325 21.4787 39.9595 16.6607 39.9595 10.7391C39.9595 4.81758 35.1325 0 29.1994 0C23.2662 0 18.4392 4.81758 18.4392 10.7391ZM38.0033 10.7391C38.0033 15.5842 34.0539 19.5259 29.1994 19.5259C24.3448 19.5259 20.3954 15.5842 20.3954 10.7391C20.3954 5.89447 24.3448 1.95274 29.1994 1.95274C34.0539 1.95274 38.0033 5.89447 38.0033 10.7391Z" fill="#CBA55C"/>
<path d="M11.3163 49.7113C11.6955 50.0927 12.3128 50.0969 12.6969 49.7193L17.4394 45.0562C18.2451 44.252 18.4901 43.0615 18.1358 42.0265L19.156 41.0446C19.7052 40.5152 20.4284 40.2233 21.1928 40.2233H34.1969C36.504 40.2233 38.6845 39.3391 40.3376 37.7335C40.4057 37.6675 39.8213 38.3545 49.2093 27.1561C50.6017 25.5119 50.3934 23.0431 48.7445 21.6519C47.1059 20.2736 44.6513 20.4716 43.2551 22.0875L37.4829 28.0087C36.754 27.1134 35.6425 26.5553 34.4416 26.5553H23.5335C21.9813 25.9072 20.3343 25.5791 18.635 25.5791C13.9246 25.5791 9.81155 27.7504 7.60425 31.8215C6.67431 31.6456 5.69355 31.9264 4.98798 32.6306L0.334493 37.2887C-0.0454301 37.669 -0.0461945 38.2843 0.332964 38.6658L11.3163 49.7113ZM18.6346 27.5315C20.1329 27.5315 21.5815 27.8324 22.9411 28.426C23.0649 28.4802 23.1983 28.508 23.3332 28.508H34.4416C35.5022 28.508 36.3981 29.3713 36.3981 30.4604C36.3981 31.5373 35.5206 32.4131 34.4416 32.4131H26.4605C25.9204 32.4131 25.4824 32.8503 25.4824 33.3893C25.4824 33.9287 25.9204 34.3655 26.4605 34.3655H34.4416C36.5992 34.3655 38.3543 32.6138 38.3543 30.4604C38.3543 30.2887 38.3421 30.1186 38.3199 29.95C43.9037 24.2214 44.6911 23.4165 44.7247 23.3765C45.4219 22.5552 46.6595 22.451 47.4828 23.1438C48.3068 23.8392 48.4112 25.0736 47.7121 25.8995L38.9383 36.3678C37.6571 37.5954 35.975 38.271 34.1969 38.271H21.1928C19.9185 38.271 18.7122 38.7573 17.7972 39.6397L16.9659 40.4404L9.30243 32.7923C11.0935 29.4388 14.4543 27.5315 18.6346 27.5315ZM6.37236 34.0103C6.69495 33.6884 7.19031 33.6304 7.58361 33.873C7.75293 33.976 7.26675 33.5343 16.0562 42.2943C16.4472 42.6846 16.4262 43.3064 16.0615 43.6703L12.0185 47.6456L2.40687 37.9795L6.37236 34.0103Z" fill="#CBA55C"/>
<path d="M28.0257 4.88167V6.0257C26.8871 6.42853 26.0691 7.51381 26.0691 8.78678C26.0691 10.4015 27.3855 11.7157 29.0038 11.7157C29.5431 11.7157 29.9819 12.1536 29.9819 12.6919C29.9819 13.2301 29.5431 13.6681 29.0038 13.6681C28.586 13.6681 28.1346 13.406 27.7337 12.9295C27.3859 12.5168 26.769 12.4638 26.3554 12.8105C25.9418 13.1577 25.8883 13.7733 26.2361 14.1861C26.759 14.8068 27.374 15.2393 28.0257 15.4575V16.597C28.0257 17.1364 28.4637 17.5732 29.0038 17.5732C29.5439 17.5732 29.9819 17.1364 29.9819 16.597V15.453C31.1205 15.0497 31.9384 13.9645 31.9384 12.6919C31.9384 11.0767 30.6221 9.76296 29.0038 9.76296C28.4645 9.76296 28.0257 9.32503 28.0257 8.78678C28.0257 8.24852 28.4645 7.81021 29.0038 7.81021C29.3505 7.81021 29.7162 7.98683 30.0618 8.32062C30.4501 8.6956 31.0693 8.6853 31.445 8.29811C31.8207 7.91054 31.8104 7.29256 31.4224 6.91757C30.9259 6.43807 30.4291 6.16684 29.9819 6.01883V4.88167C29.9819 4.34227 29.5439 3.90511 29.0038 3.90511C28.4637 3.90511 28.0257 4.34227 28.0257 4.88167Z" fill="#CBA55C"/>
</g>
<defs>
<clipPath id="clip0">
<rect width="50" height="50" fill="white"/>
</clipPath>
</defs>
</svg>
