<svg width="36" height="36" viewBox="0 0 36 36" fill="none" xmlns="http://www.w3.org/2000/svg">
<path d="M18 0C8.05946 0 0 8.05946 0 18C0 27.9417 8.05946 36 18 36C27.9417 36 36 27.9428 36 18C36 8.05946 27.9415 0 18 0ZM18 32.6249C9.92255 32.6249 3.37506 26.0775 3.37506 18C3.37506 9.92255 9.92255 3.37506 18 3.37506C26.0775 3.37506 32.6249 9.92255 32.6249 18C32.6249 26.0775 26.0775 32.6249 18 32.6249ZM18.0011 7.89409C16.7119 7.89409 15.7365 8.56689 15.7365 9.6536V19.6211C15.7365 20.7089 16.7118 21.3795 18.0011 21.3795C19.2589 21.3795 20.2658 20.6809 20.2658 19.6211V9.6536C20.2657 8.59269 19.2589 7.89409 18.0011 7.89409ZM18.0011 23.625C16.7625 23.625 15.7545 24.6331 15.7545 25.8727C15.7545 27.1102 16.7625 28.1182 18.0011 28.1182C19.2398 28.1182 20.2467 27.1102 20.2467 25.8727C20.2466 24.6329 19.2398 23.625 18.0011 23.625Z" fill="white"/>
</svg>
